<svg xmlns="http://www.w3.org/2000/svg" viewBox="0 0 48 48">
  <rect width="48" height="48" rx="8" fill="#0a0a0a"/>
  <defs>
    <filter id="glow">
      <feGaussianBlur stdDeviation="2" />
    </filter>
  </defs>
  <g filter="url(#glow)">
    <line x1="24" y1="4" x2="4" y2="16" stroke="#34d399" stroke-width="3" stroke-opacity="0.3" />
    <line x1="24" y1="4" x2="44" y2="16" stroke="#34d399" stroke-width="3" stroke-opacity="0.3" />
    <line x1="4" y1="16" x2="44" y2="16" stroke="#34d399" stroke-width="3" stroke-opacity="0.3" />
    <line x1="4" y1="16" x2="24" y2="44" stroke="#34d399" stroke-width="3" stroke-opacity="0.3" />
    <line x1="44" y1="16" x2="24" y2="44" stroke="#34d399" stroke-width="3" stroke-opacity="0.3" />
  </g>
  <line x1="24" y1="4" x2="4" y2="16" stroke="#34d399" stroke-width="1" />
  <line x1="24" y1="4" x2="44" y2="16" stroke="#34d399" stroke-width="1" />
  <line x1="4" y1="16" x2="44" y2="16" stroke="#34d399" stroke-width="1" />
  <line x1="24" y1="4" x2="16" y2="16" stroke="#34d399" stroke-width="1" stroke-opacity="0.7" />
  <line x1="24" y1="4" x2="32" y2="16" stroke="#34d399" stroke-width="1" stroke-opacity="0.7" />
  <line x1="4" y1="16" x2="24" y2="44" stroke="#34d399" stroke-width="1" />
  <line x1="44" y1="16" x2="24" y2="44" stroke="#34d399" stroke-width="1" />
  <line x1="16" y1="16" x2="24" y2="44" stroke="#34d399" stroke-width="1" stroke-opacity="0.7" />
  <line x1="32" y1="16" x2="24" y2="44" stroke="#34d399" stroke-width="1" stroke-opacity="0.7" />
  <line x1="24" y1="16" x2="24" y2="44" stroke="#34d399" stroke-width="1" stroke-opacity="0.7" />
</svg>
